<svg xmlns="http://www.w3.org/2000/svg" xmlns:xlink="http://www.w3.org/1999/xlink" version="1.1" x="0px" y="0px" viewBox="0 0 100 125" enable-background="new 0 0 100 100" xml:space="preserve"><g><path d="M50.818,9.505c-21.367,0-38.75,17.384-38.75,38.751c0,7.399,2.093,14.577,6.058,20.794l-6.277,16.49   c-0.156,0.409-0.05,0.87,0.268,1.17c0.205,0.194,0.472,0.296,0.742,0.296c0.149,0,0.3-0.03,0.442-0.094l15.361-6.875   c6.524,4.562,14.172,6.969,22.156,6.969c21.368,0,38.751-17.384,38.751-38.75C89.569,26.889,72.187,9.505,50.818,9.505z    M50.818,81.289c-6.982,0-13.663-2.16-19.319-6.248c-0.796-0.574-1.735-0.878-2.715-0.878c-0.658,0-1.295,0.136-1.893,0.404   l-5.721,2.561l2.494-6.556c0.531-1.389,0.359-2.957-0.458-4.196c-3.544-5.389-5.418-11.654-5.418-18.12   c0-8.808,3.439-17.099,9.686-23.346c6.246-6.247,14.538-9.687,23.345-9.687c18.215,0,33.033,14.819,33.033,33.033   C83.852,66.471,69.033,81.289,50.818,81.289z"/><polygon points="36.721,49.655 47.209,49.655 47.209,45.905 36.721,45.905 36.721,41.32 48.147,41.32 48.147,37.497 32.312,37.497    32.312,59.089 48.674,59.089 48.674,55.207 36.721,55.207  "/><path d="M67.105,48.366c-0.83-0.654-2.074-1.177-3.734-1.567l-3.789-0.894c-1.463-0.342-2.418-0.64-2.869-0.894   c-0.7-0.381-1.051-0.957-1.051-1.729c0-0.84,0.355-1.494,1.066-1.963s1.662-0.703,2.854-0.703c1.07,0,1.967,0.181,2.688,0.542   c1.08,0.547,1.662,1.47,1.742,2.769h4.336c-0.08-2.295-0.932-4.045-2.559-5.251s-3.592-1.809-5.895-1.809   c-2.758,0-4.848,0.64-6.271,1.919s-2.136,2.886-2.136,4.819c0,2.119,0.728,3.677,2.183,4.673c0.859,0.596,2.438,1.147,4.734,1.655   l2.338,0.513c1.369,0.293,2.367,0.63,2.998,1.011c0.629,0.391,0.945,0.942,0.945,1.655c0,1.221-0.645,2.056-1.93,2.505   c-0.678,0.234-1.561,0.352-2.648,0.352c-1.814,0-3.095-0.444-3.842-1.333c-0.409-0.488-0.684-1.226-0.823-2.212h-4.307   c0,2.246,0.813,4.011,2.442,5.296c1.629,1.283,3.865,1.926,6.707,1.926c2.783,0,4.938-0.652,6.463-1.955   c1.525-1.305,2.287-2.942,2.287-4.915C69.035,50.852,68.393,49.382,67.105,48.366z"/></g><text x="0" y="115" fill="#000000" font-size="5px" font-weight="bold" font-family="'Helvetica Neue', Helvetica, Arial-Unicode, Arial, Sans-serif">Created by corpus delicti</text><text x="0" y="120" fill="#000000" font-size="5px" font-weight="bold" font-family="'Helvetica Neue', Helvetica, Arial-Unicode, Arial, Sans-serif">from the Noun Project</text></svg>